# xmcd
#
# Track frame offsets:
#	187
#	25165
#	41325
#	60887
#	80287
#	94250
#	107612
#	120175
#	140462
#	160162
#	175012
#	204337
#	216375
#	226637
#	241475
#	255325
#
# Disc length: 3825 seconds
#
# Revision: 1
# Processed by: cddbd v1.5.1PL0 Copyright (c) Steve Scherf et al.
# Submitted via: CDex 1.50Beta5
#
DISCID=bb0eef10
DTITLE=さまざまなアーティスト - HOT JAZZ
DYEAR=1900
DGENRE=Jazz
TTITLE0=DIZZY GILLESPIE/SCHOOL DAYS
TTITLE1=JIMMY SMITH/MISSOIN: IMPOSSIBLE
TTITLE2=TAL FARLOW/NIGHT AND DAY
TTITLE3=THE DON RANDI TRIO/T.J.S BLUES
TTITLE4=WALTER WANDERLEY/SUMMER SAMBA (SO NICE)
TTITLE5=STAN GETZ/BALANCO NO SAMBA (STREET DANCE)
TTITLE6=ASTRUD GILBERTO/FELICIDADE
TTITLE7=WYNTON KELLY TRIO/ON THE TRAIL (from "The Grand Canyon Suite")
TTITLE8=BILL EVANS TRIO/ELSA
TTITLE9=JOHNNY SMITH/WALK DON'T RUN
TTITLE10=BUDDY DeFRANCO/NOW'S THE TIME
TTITLE11=GEORGE SHEARING QUINTET/LULLABY OF BIRDLAND
TTITLE12=BLOSSOM DEARIE/DOOP-DOO-DE-DOOP (A DOODLIN' SONG)
TTITLE13=OSCAR PETERSON/UNFORGETTABLE
TTITLE14=COUNT BASIE and HIS ORCHESTRA/YESTERDAY
TTITLE15=WES MONTGOMERY and WYNTON KELLY TRIO/MISTY
EXTD=
EXTT0=
EXTT1=
EXTT2=
EXTT3=
EXTT4=
EXTT5=
EXTT6=
EXTT7=
EXTT8=
EXTT9=
EXTT10=
EXTT11=
EXTT12=
EXTT13=
EXTT14=
EXTT15=
PLAYORDER=
